<svg xmlns="http://www.w3.org/2000/svg" width="750" height="340" viewBox="0 0 750 340">
  <defs>
    <linearGradient id="bg2" x1="0%" y1="0%" x2="100%" y2="100%">
      <stop offset="0%" style="stop-color:#1a237e"/>
      <stop offset="50%" style="stop-color:#283593"/>
      <stop offset="100%" style="stop-color:#3949ab"/>
    </linearGradient>
    <linearGradient id="gold2" x1="0%" y1="0%" x2="100%" y2="0%">
      <stop offset="0%" style="stop-color:#ff6f00"/>
      <stop offset="100%" style="stop-color:#ffab00"/>
    </linearGradient>
  </defs>
  <rect width="750" height="340" fill="url(#bg2)"/>
  <!-- Globe decoration -->
  <circle cx="580" cy="170" r="130" fill="none" stroke="rgba(255,255,255,0.08)" stroke-width="2"/>
  <ellipse cx="580" cy="170" rx="130" ry="50" fill="none" stroke="rgba(255,255,255,0.06)" stroke-width="1.5"/>
  <ellipse cx="580" cy="170" rx="50" ry="130" fill="none" stroke="rgba(255,255,255,0.06)" stroke-width="1.5"/>
  <line x1="450" y1="170" x2="710" y2="170" stroke="rgba(255,255,255,0.05)" stroke-width="1"/>
  <line x1="580" y1="40" x2="580" y2="300" stroke="rgba(255,255,255,0.05)" stroke-width="1"/>
  <!-- Airplane path -->
  <path d="M420 100 Q500 80 560 120" fill="none" stroke="rgba(255,255,255,0.2)" stroke-width="1.5" stroke-dasharray="4 4"/>
  <!-- Airplane -->
  <g transform="translate(420, 85) rotate(-15)">
    <path d="M0 8 L25 0 L25 6 L40 2 L40 8 L25 10 L25 16 L0 8Z" fill="rgba(255,255,255,0.6)"/>
  </g>
  <!-- Location pins -->
  <g transform="translate(500, 210)">
    <circle cx="0" cy="0" r="4" fill="#ff6f00"/>
    <circle cx="80" cy="-40" r="4" fill="#ffab00"/>
    <circle cx="40" cy="30" r="3" fill="rgba(255,255,255,0.4)"/>
    <line x1="0" y1="0" x2="80" y2="-40" stroke="rgba(255,255,255,0.15)" stroke-width="1" stroke-dasharray="3 3"/>
    <line x1="80" y1="-40" x2="40" y2="30" stroke="rgba(255,255,255,0.15)" stroke-width="1" stroke-dasharray="3 3"/>
  </g>
  <!-- Text -->
  <text x="60" y="100" font-family="'Noto Sans TC','Microsoft JhengHei',sans-serif" font-size="18" fill="url(#gold2)" font-weight="600">🔥 限時活動</text>
  <text x="60" y="155" font-family="'Noto Sans TC','Microsoft JhengHei',sans-serif" font-size="40" font-weight="700" fill="#ffffff">1688 代購代採</text>
  <text x="60" y="195" font-family="'Noto Sans TC','Microsoft JhengHei',sans-serif" font-size="20" fill="rgba(255,255,255,0.8)">全網最低服務費 · 專業質檢驗貨</text>
  <!-- Price tag -->
  <rect x="60" y="220" width="160" height="50" rx="8" fill="url(#gold2)"/>
  <text x="140" y="242" font-family="'Noto Sans TC','Microsoft JhengHei',sans-serif" font-size="13" fill="#1a237e" text-anchor="middle" font-weight="500">服務費低至</text>
  <text x="140" y="263" font-family="'Noto Sans TC','Microsoft JhengHei',sans-serif" font-size="18" fill="#1a237e" text-anchor="middle" font-weight="700">¥3/件</text>
  <!-- Trust badges -->
  <g transform="translate(60, 288)">
    <rect width="80" height="24" rx="12" fill="rgba(255,255,255,0.12)"/>
    <text x="40" y="16" font-size="11" fill="rgba(255,255,255,0.8)" text-anchor="middle" font-family="sans-serif">正品保障</text>
    <rect x="90" width="80" height="24" rx="12" fill="rgba(255,255,255,0.12)"/>
    <text x="130" y="16" font-size="11" fill="rgba(255,255,255,0.8)" text-anchor="middle" font-family="sans-serif">極速出貨</text>
    <rect x="180" width="80" height="24" rx="12" fill="rgba(255,255,255,0.12)"/>
    <text x="220" y="16" font-size="11" fill="rgba(255,255,255,0.8)" text-anchor="middle" font-family="sans-serif">售後無憂</text>
  </g>
</svg>