<svg xmlns="http://www.w3.org/2000/svg" viewBox="0 0 300 300" width="300" height="300">
  <!-- 商品2: 氣泡膜包裝材料 Bubble Wrap -->
  <defs>
    <linearGradient id="g2bg" x1="0%" y1="0%" x2="100%" y2="100%">
      <stop offset="0%" style="stop-color:#f0f9ff"/>
      <stop offset="100%" style="stop-color:#e0f2fe"/>
    </linearGradient>
  </defs>
  <rect width="300" height="300" fill="url(#g2bg)"/>
  <!-- Bubble wrap roll -->
  <rect x="70" y="60" width="160" height="160" rx="8" fill="#e0f2fe" stroke="#7dd3fc" stroke-width="2"/>
  <!-- Bubble pattern -->
  <circle cx="100" cy="90" r="12" fill="none" stroke="#7dd3fc" stroke-width="1.5" opacity="0.6"/>
  <circle cx="130" cy="90" r="12" fill="none" stroke="#7dd3fc" stroke-width="1.5" opacity="0.6"/>
  <circle cx="160" cy="90" r="12" fill="none" stroke="#7dd3fc" stroke-width="1.5" opacity="0.6"/>
  <circle cx="190" cy="90" r="12" fill="none" stroke="#7dd3fc" stroke-width="1.5" opacity="0.6"/>
  <circle cx="115" cy="120" r="12" fill="none" stroke="#7dd3fc" stroke-width="1.5" opacity="0.6"/>
  <circle cx="145" cy="120" r="12" fill="none" stroke="#7dd3fc" stroke-width="1.5" opacity="0.6"/>
  <circle cx="175" cy="120" r="12" fill="none" stroke="#7dd3fc" stroke-width="1.5" opacity="0.6"/>
  <circle cx="100" cy="150" r="12" fill="none" stroke="#7dd3fc" stroke-width="1.5" opacity="0.6"/>
  <circle cx="130" cy="150" r="12" fill="none" stroke="#7dd3fc" stroke-width="1.5" opacity="0.6"/>
  <circle cx="160" cy="150" r="12" fill="none" stroke="#7dd3fc" stroke-width="1.5" opacity="0.6"/>
  <circle cx="190" cy="150" r="12" fill="none" stroke="#7dd3fc" stroke-width="1.5" opacity="0.6"/>
  <circle cx="115" cy="180" r="12" fill="none" stroke="#7dd3fc" stroke-width="1.5" opacity="0.6"/>
  <circle cx="145" cy="180" r="12" fill="none" stroke="#7dd3fc" stroke-width="1.5" opacity="0.6"/>
  <circle cx="175" cy="180" r="12" fill="none" stroke="#7dd3fc" stroke-width="1.5" opacity="0.6"/>
  <!-- Roll cylinder hint -->
  <ellipse cx="150" cy="60" rx="80" ry="10" fill="#bae6fd" stroke="#7dd3fc" stroke-width="1"/>
  <!-- Price tag -->
  <rect x="180" y="220" width="90" height="35" rx="4" fill="#ef4444"/>
  <text x="225" y="243" text-anchor="middle" font-family="Arial,sans-serif" font-size="16" fill="#fff" font-weight="bold">¥8.50</text>
  <text x="150" y="270" text-anchor="middle" font-family="Arial,sans-serif" font-size="14" fill="#666">氣泡膜包裝材料</text>
</svg>